<svg xmlns="http://www.w3.org/2000/svg" viewBox="0 0 512 512">
  <defs>
    <style>
      .cls-1 {
        fill: #ff5b68;
      }

      .cls-2 {
        fill: #ff3342;
      }

      .cls-3 {
        fill: #de253a;
      }

      .cls-4 {
        fill: #c11830;
      }

      .cls-5 {
        fill: #ff4957;
      }

      .cls-6 {
        fill: #dd1e34;
      }

      .cls-7 {
        fill: #ff4250;
      }

      .cls-8 {
        fill: #ff7c86;
      }

      .cls-9 {
        fill: #ff5f6c;
      }

      .cls-10 {
        fill: #ff3948;
      }

      .cls-11 {
        fill: #ff4e5b;
      }

      .cls-12 {
        fill: #c3041c;
      }

      .cls-13 {
        fill: #ff747f;
      }
    </style>
  </defs>
  <title>E Commerce_512px</title>
  <g id="Shopping_Basket" data-name="Shopping Basket">
    <g>
      <path class="cls-1" d="M266.66661,64h.00011A53.33328,53.33328,0,0,1,320,117.33328v160a21.33333,21.33333,0,1,0,42.66667,0V117.33324a95.99991,95.99991,0,0,0-95.99991-95.99991h-.00019Z"/>
      <path class="cls-2" d="M266.66667,42.66667c-.02084,0-.02735.043-.04688.04427v-.04427a10.61979,10.61979,0,0,0,0,21.23958V63.6862c.01172.07552.04688.3138.04688.3138A53.33263,53.33263,0,0,1,320,117.33333v160a10.66667,10.66667,0,1,0,21.33333,0v-160C339.33333,49,280.33333,42.66667,266.66667,42.66667Z"/>
      <path class="cls-3" d="M183.86135,256H439.54292a42.66666,42.66666,0,0,1,41.97845,50.29911L454.36986,455.63245a42.66667,42.66667,0,0,1-41.97845,35.03422H224.58862a42.66666,42.66666,0,0,1-41.16325-31.44033L142.69809,309.893A42.66667,42.66667,0,0,1,183.86135,256Z"/>
      <path class="cls-4" d="M469.33333,320v0A21.33331,21.33331,0,0,1,448,341.33333H402.072a21.33331,21.33331,0,0,0-21.043,17.82614l-14.17365,85.04189a30.07652,30.07652,0,0,1-29.6673,25.132H337.188a30.07653,30.07653,0,0,1-29.17852-37.37115l29.28408-117.13629a21.3333,21.3333,0,0,1,20.69635-16.15922H448A21.33331,21.33331,0,0,1,469.33333,320Z"/>
      <path class="cls-5" d="M72.45708,256H311.54292a42.66666,42.66666,0,0,1,41.97845,50.29911L326.36986,455.63245a42.66667,42.66667,0,0,1-41.97845,35.03422H99.60859a42.66667,42.66667,0,0,1-41.97845-35.03422L30.47863,306.29911A42.66666,42.66666,0,0,1,72.45708,256Z"/>
      <rect class="cls-3" x="42.66667" y="298.66667" width="298.66667" height="42.66667" rx="21.33331" ry="21.33331"/>
      <rect class="cls-6" x="85.33333" y="341.33333" width="42.66667" height="106.66667" rx="21.33331" ry="21.33331"/>
      <rect class="cls-6" x="170.66667" y="341.33333" width="42.66667" height="106.66667" rx="21.33331" ry="21.33331"/>
      <rect class="cls-6" x="256" y="341.33333" width="42.66667" height="106.66667" rx="21.33331" ry="21.33331"/>
      <rect class="cls-7" x="128" y="256" width="362.66667" height="64" rx="31.99997" ry="31.99997"/>
      <rect class="cls-1" x="21.33333" y="256" width="362.66667" height="64" rx="31.99997" ry="31.99997"/>
      <rect class="cls-8" x="64" y="256" width="277.33333" height="42.66667" rx="21.33331" ry="21.33331"/>
      <rect class="cls-7" x="42.66667" y="298.66667" width="320" height="21.33333" rx="10.66666" ry="10.66666"/>
      <rect class="cls-3" x="192" y="256" width="42.66667" height="64" rx="21.33331" ry="21.33331"/>
      <path class="cls-9" d="M362.66667,117.33324a95.99991,95.99991,0,0,0-95.99991-95.99991h-.00019a95.9999,95.9999,0,0,0-95.9999,95.99991V277.33333a21.33333,21.33333,0,1,0,42.66666,0v-160A53.33328,53.33328,0,0,1,266.66661,64h.00011A53.33328,53.33328,0,0,1,320,117.33328Z"/>
      <path class="cls-10" d="M266.66667,42.66667c-.02084,0-.02735.043-.04688.04427v-.04427a10.61979,10.61979,0,0,0,0,21.23958V63.6862c.01172.07552.04688.3138.04688.3138A53.33263,53.33263,0,0,1,320,117.33333h21.33333C339.33333,49,280.33333,42.66667,266.66667,42.66667Z"/>
      <rect class="cls-3" x="384" y="298.66667" width="85.33333" height="21.33333" rx="10.66666" ry="10.66666"/>
      <rect class="cls-4" x="341.33333" y="469.33333" width="85.33333" height="21.33333" rx="10.66666" ry="10.66666"/>
      <rect class="cls-11" x="384" y="256" width="85.33333" height="42.66667" rx="21.33331" ry="21.33331"/>
      <rect class="cls-12" x="85.33333" y="362.66667" width="21.33333" height="64" rx="10.66666" ry="10.66666"/>
      <rect class="cls-13" x="128" y="362.66667" width="21.33333" height="64" rx="10.66666" ry="10.66666"/>
      <rect class="cls-13" x="213.33333" y="362.66667" width="21.33333" height="64" rx="10.66666" ry="10.66666"/>
      <rect class="cls-13" x="298.66667" y="362.66667" width="21.33333" height="64" rx="10.66666" ry="10.66666"/>
      <rect class="cls-12" x="170.66667" y="362.66667" width="21.33333" height="64" rx="10.66666" ry="10.66666"/>
      <rect class="cls-12" x="256" y="362.66667" width="21.33333" height="64" rx="10.66666" ry="10.66666"/>
      <rect class="cls-3" x="85.33333" y="469.33333" width="213.33333" height="21.33333" rx="10.66666" ry="10.66666"/>
    </g>
  </g>
</svg>
