<svg xmlns="http://www.w3.org/2000/svg" viewBox="0 0 64 64"><g id="_18-Online_shopping" data-name="18-Online shopping"><path d="M39,43H62a1,1,0,0,1,1,1v1a4,4,0,0,1-4,4H5a4,4,0,0,1-4-4V44a1,1,0,0,1,1-1H25l2,3H37Z" style="fill:#202024"/><path d="M59,47H5a3.992,3.992,0,0,1-3.933-3.331A.986.986,0,0,0,1,44v1a4,4,0,0,0,4,4H59a4,4,0,0,0,4-4V44a.986.986,0,0,0-.067-.331A3.992,3.992,0,0,1,59,47Z" style="fill:#e04323"/><polygon points="39 43 37 46 27 46 25 43 39 43" style="fill:#c1cfe8"/><path d="M60,3V43H4V3A2.041,2.041,0,0,1,6.07,1H57.93A2.041,2.041,0,0,1,60,3ZM56,39V5H8V39Z" style="fill:#313131"/><rect x="8" y="5" width="48" height="34" style="fill:#e04323"/><path d="M7,4V40H57V4ZM56,39H8V5H56Z" style="fill:#202024"/><path d="M8,5V39H56V34H21a8,8,0,0,1-8-8V5Z" style="fill:#cd2b15"/><rect x="25" y="37" width="28" height="3" style="fill:#d6e0eb"/><path d="M53,35v2H25V34a1,1,0,0,1,1-1H52a1,1,0,0,1,1,1Z" style="fill:#c1cfe8"/><path d="M53,41v6l-3.38-3.38A2.12,2.12,0,0,0,46,45.12a4.55,4.55,0,0,0,1.33,3.21L50,51H26a1,1,0,0,1-1-1V40H53Z" style="fill:#c1cfe8"/><path d="M53,47V35h1.58a1.719,1.719,0,0,1,1.21.5l5.7,5.6A4.987,4.987,0,0,1,63,44.67V63H51V61c-4-3-4-5-4-8V51h3l-2.67-2.67A4.55,4.55,0,0,1,46,45.12a2.121,2.121,0,0,1,3.62-1.5Z" style="fill:#f2aec7"/><polygon points="57 44 54 41 53 41 53 47 57 51 57 44" style="fill:#e39ab0"/><path d="M57,60V59a6.251,6.251,0,0,1-6-6V52l-1-1H47v2c0,3,0,5,4,8h5A1,1,0,0,0,57,60Z" style="fill:#e39ab0"/><path d="M47.33,48.33c-.1-.1-.18-.22-.27-.33A4.53,4.53,0,0,1,46,45.12a2.133,2.133,0,0,1,.62-1.5A2.12,2.12,0,0,0,43,45.12,4.53,4.53,0,0,0,44.06,48H25v2a1,1,0,0,0,1,1H50Z" style="fill:#a8b7d4"/><rect x="21" y="43" width="4" height="4" style="fill:#101012"/><rect x="21" y="47" width="4" height="2" style="fill:#cd2b15"/><polygon points="21 39 21 40 21 43 25 43 25 40 25 39 21 39" style="fill:#202024"/><path d="M22,33a1,1,0,0,0-1,1v5h4V34a1,1,0,0,1,1-1Z" style="fill:#b82115"/><circle cx="35.5" cy="27.5" r="1.5" style="fill:#fff"/><circle cx="28.5" cy="27.5" r="1.5" style="fill:#fff"/><path d="M37.07,15.505l-7-1-.14.99,6.57.939V18.68a.5.5,0,0,1-.4.49l-6.685,1.337-1.26-6.823A1.509,1.509,0,0,0,26.69,12.5H25v1h1.69a.5.5,0,0,1,.488.381L28.436,20.7,28,20.79a1.874,1.874,0,0,0,.37,3.71H37v-1H28.37a.874.874,0,0,1-.173-1.73l8.1-1.619a1.5,1.5,0,0,0,1.2-1.471V16A.5.5,0,0,0,37.07,15.505Z" style="fill:#fff"/><polygon points="47 7 54 14 54 7 47 7" style="fill:#cd2b15"/></g></svg>